<?xml version="1.0" encoding="iso-8859-1"?>
<!-- Generator: Adobe Illustrator 19.0.0, SVG Export Plug-In . SVG Version: 6.00 Build 0)  -->
<svg version="1.1" id="Layer_1" xmlns="http://www.w3.org/2000/svg" xmlns:xlink="http://www.w3.org/1999/xlink" x="0px" y="0px"
	 viewBox="0 0 408.76 408.76" style="enable-background:new 0 0 408.76 408.76;" xml:space="preserve">
<g>
	<path style="fill:#FFBE00;" d="M204.385,408.76c-58.121,0-113.675-24.867-152.418-68.227
		C18.46,303.057,0.005,254.703,0.005,204.381C0.005,91.685,91.69,0,204.385,0c50.317,0,98.674,18.455,136.163,51.964
		c43.348,38.762,68.207,94.314,68.207,152.417C408.755,317.076,317.076,408.76,204.385,408.76"/>
	<path style="fill:#F4502A;" d="M377.759,204.377c0,11.191-1.06,22.141-3.091,32.741c-1.25,6.53-2.859,12.921-4.82,19.161
		c-20.391,65.09-78.11,113.659-148.079,120.609c-5.721,0.582-11.51,0.872-17.38,0.872c-51.39,0-97.561-22.361-129.301-57.881
		c-0.26-0.29-0.519-0.589-0.79-0.879c-26.95-30.562-43.289-70.681-43.289-114.622c0-95.749,77.619-173.379,173.38-173.379
		c43.95,0,84.069,16.35,114.629,43.29c0.29,0.27,0.591,0.53,0.881,0.791C355.409,106.838,377.759,152.987,377.759,204.377"/>
	<path style="fill:#C29100;" d="M89.157,333.921c0.02,0.018,0.04,0.036,0.06,0.054C89.197,333.957,89.176,333.938,89.157,333.921
		 M74.323,319.026c4.614,5.229,9.539,10.178,14.746,14.817c-4.92-4.387-9.589-9.05-13.981-13.965
		C74.836,319.597,74.586,319.307,74.323,319.026 M69.757,313.635c0.044,0.053,0.091,0.112,0.135,0.166
		C69.846,313.745,69.803,313.691,69.757,313.635 M69.415,313.213c0.064,0.079,0.128,0.158,0.192,0.237
		C69.543,313.37,69.479,313.292,69.415,313.213 M69.085,312.803c0.089,0.11,0.176,0.219,0.265,0.329
		C69.261,313.021,69.174,312.913,69.085,312.803 M161.573,36.324C86.521,55.384,31.004,123.394,31.004,204.37
		c0,41.021,14.238,78.71,38.052,108.396C45.244,283.075,31.01,245.391,31.01,204.377C31.009,123.402,86.52,55.386,161.573,36.324"/>
	<path style="fill:#BA3D20;" d="M204.383,30.999c-14.775,0-29.117,1.848-42.81,5.325C86.52,55.386,31.009,123.402,31.009,204.377
		c0,41.014,14.234,78.698,38.046,108.389c0.009,0.012,0.02,0.025,0.029,0.037c0.089,0.111,0.176,0.219,0.265,0.329
		c0.021,0.026,0.044,0.055,0.065,0.081c0.064,0.079,0.128,0.158,0.192,0.237c0.051,0.063,0.099,0.123,0.151,0.186
		c0.046,0.056,0.089,0.11,0.135,0.166c1.443,1.771,2.92,3.513,4.431,5.225c0.262,0.281,0.513,0.571,0.765,0.852
		c4.392,4.915,9.061,9.579,13.981,13.965c0.029,0.026,0.058,0.052,0.087,0.078c0.02,0.018,0.041,0.036,0.06,0.054
		c1.071,0.952,2.154,1.891,3.248,2.817c-25.53-30.203-40.92-69.243-40.92-111.883c0-95.749,77.621-173.37,173.381-173.37
		c42.629,0,81.68,15.392,111.869,40.921C305.004,54.871,257.485,30.999,204.383,30.999"/>
	<path style="fill:#BA3D20;" d="M275.268,132.597L81.149,254.518l123.24,123.24c5.87,0,11.66-0.29,17.38-0.872
		c69.969-6.949,127.688-55.519,148.079-120.609c1.961-6.24,3.569-12.631,4.82-19.161l-43.209-48.33L275.268,132.597"/>
	<path style="fill:#FFFFFF;" d="M297.213,167.191c-10.457-32.01-40.54-55.145-76.043-55.145c-37.205,0-68.474,25.4-77.423,59.803
		c-7.031-3.465-14.94-5.419-23.308-5.419c-29.165,0-52.808,23.643-52.808,52.808s23.643,52.808,52.808,52.808
		c18.366,0,156.809,0,167.882,0c29.165,0,52.808-23.643,52.808-52.808C341.128,193.106,322.141,171.421,297.213,167.191z"/>
</g>
<g>
</g>
<g>
</g>
<g>
</g>
<g>
</g>
<g>
</g>
<g>
</g>
<g>
</g>
<g>
</g>
<g>
</g>
<g>
</g>
<g>
</g>
<g>
</g>
<g>
</g>
<g>
</g>
<g>
</g>
</svg>
